<svg width="900" height="280" viewBox="0 0 900 280" fill="none" xmlns="http://www.w3.org/2000/svg" role="img" aria-labelledby="title desc">
  <title id="title">Tech stack section</title>
  <desc id="desc">A technology stack card for KNY1005.</desc>
  <defs>
    <linearGradient id="bg" x1="0" y1="0" x2="900" y2="280" gradientUnits="userSpaceOnUse">
      <stop stop-color="#0F172A"/>
      <stop offset="1" stop-color="#111827"/>
    </linearGradient>
    <linearGradient id="line" x1="88" y1="96" x2="812" y2="96" gradientUnits="userSpaceOnUse">
      <stop stop-color="#38BDF8"/>
      <stop offset="0.5" stop-color="#818CF8"/>
      <stop offset="1" stop-color="#C084FC"/>
    </linearGradient>
  </defs>
  <rect width="900" height="280" rx="30" fill="url(#bg)"/>
  <path d="M87 96H813" stroke="url(#line)" stroke-width="2" stroke-linecap="round"/>
  <text x="90" y="66" fill="#FFFFFF" font-family="Segoe UI, Arial, sans-serif" font-size="30" font-weight="800">
    Tech Stack
  </text>
  <text x="90" y="126" fill="#CBD5E1" font-family="Segoe UI, Arial, sans-serif" font-size="15">
    Tools and languages I use while learning and building projects.
  </text>
  <g font-family="Segoe UI, Arial, sans-serif" font-size="15" font-weight="700">
    <rect x="90" y="160" width="118" height="44" rx="22" fill="#F7DF1E"/>
    <text x="149" y="188" text-anchor="middle" fill="#111827">JavaScript</text>
    <rect x="224" y="160" width="120" height="44" rx="22" fill="#3178C6"/>
    <text x="284" y="188" text-anchor="middle" fill="#FFFFFF">TypeScript</text>
    <rect x="360" y="160" width="88" height="44" rx="22" fill="#61DAFB"/>
    <text x="404" y="188" text-anchor="middle" fill="#0F172A">React</text>
    <rect x="464" y="160" width="92" height="44" rx="22" fill="#339933"/>
    <text x="510" y="188" text-anchor="middle" fill="#FFFFFF">Node.js</text>
    <rect x="572" y="160" width="92" height="44" rx="22" fill="#3776AB"/>
    <text x="618" y="188" text-anchor="middle" fill="#FFFFFF">Python</text>
    <rect x="680" y="160" width="76" height="44" rx="22" fill="#F05032"/>
    <text x="718" y="188" text-anchor="middle" fill="#FFFFFF">Git</text>
    <rect x="90" y="220" width="92" height="38" rx="19" fill="#1E293B" stroke="#475569"/>
    <text x="136" y="245" text-anchor="middle" fill="#E2E8F0">HTML</text>
    <rect x="198" y="220" width="78" height="38" rx="19" fill="#1E293B" stroke="#475569"/>
    <text x="237" y="245" text-anchor="middle" fill="#E2E8F0">CSS</text>
    <rect x="292" y="220" width="108" height="38" rx="19" fill="#1E293B" stroke="#475569"/>
    <text x="346" y="245" text-anchor="middle" fill="#E2E8F0">GitHub</text>
    <rect x="416" y="220" width="96" height="38" rx="19" fill="#1E293B" stroke="#475569"/>
    <text x="464" y="245" text-anchor="middle" fill="#E2E8F0">VS Code</text>
  </g>
</svg>
